<mxfile host="app.diagrams.net" modified="2024-07-05T06:55:46.303Z" agent="Mozilla/5.0 (Windows NT 10.0; Win64; x64) AppleWebKit/537.36 (KHTML, like Gecko) Chrome/126.0.0.0 Safari/537.36" etag="NIVQyNIgt9nolO2d7wyV" version="24.6.4" type="github">
  <diagram name="Page-1" id="XsJS82DSw0pg4Go2-KJP">
    <mxGraphModel dx="1403" dy="1029" grid="0" gridSize="10" guides="1" tooltips="1" connect="1" arrows="1" fold="1" page="0" pageScale="1" pageWidth="850" pageHeight="1100" math="0" shadow="0">
      <root>
        <mxCell id="0" />
        <mxCell id="1" parent="0" />
        <mxCell id="eyw4eSIkDJySSZxIesNj-30" value="Farmer Dashboard" style="rounded=0;whiteSpace=wrap;html=1;" vertex="1" parent="1">
          <mxGeometry x="-348" y="-19" width="404" height="85" as="geometry" />
        </mxCell>
        <mxCell id="eyw4eSIkDJySSZxIesNj-32" value="Name:" style="text;html=1;align=center;verticalAlign=middle;whiteSpace=wrap;rounded=0;fontSize=16;" vertex="1" parent="1">
          <mxGeometry x="-401" y="191" width="85" height="30" as="geometry" />
        </mxCell>
        <mxCell id="eyw4eSIkDJySSZxIesNj-33" value="SUBMIT" style="rounded=0;whiteSpace=wrap;html=1;" vertex="1" parent="1">
          <mxGeometry x="-195" y="521" width="120" height="60" as="geometry" />
        </mxCell>
        <mxCell id="eyw4eSIkDJySSZxIesNj-34" value="Farmer&#39;s details" style="text;html=1;align=center;verticalAlign=middle;whiteSpace=wrap;rounded=0;fontSize=16;" vertex="1" parent="1">
          <mxGeometry x="-256" y="121" width="220" height="30" as="geometry" />
        </mxCell>
        <mxCell id="eyw4eSIkDJySSZxIesNj-35" value="Location:" style="text;html=1;align=center;verticalAlign=middle;whiteSpace=wrap;rounded=0;fontSize=16;" vertex="1" parent="1">
          <mxGeometry x="-388.5" y="318" width="60" height="30" as="geometry" />
        </mxCell>
        <mxCell id="eyw4eSIkDJySSZxIesNj-38" value="Age:" style="text;html=1;align=center;verticalAlign=middle;whiteSpace=wrap;rounded=0;fontSize=16;" vertex="1" parent="1">
          <mxGeometry x="-388.5" y="248" width="60" height="30" as="geometry" />
        </mxCell>
        <mxCell id="eyw4eSIkDJySSZxIesNj-40" value="Farm size:&amp;nbsp;" style="text;html=1;align=center;verticalAlign=middle;whiteSpace=wrap;rounded=0;fontSize=16;" vertex="1" parent="1">
          <mxGeometry x="-404" y="374" width="87" height="30" as="geometry" />
        </mxCell>
        <mxCell id="eyw4eSIkDJySSZxIesNj-41" value="Type of crop(s):" style="text;html=1;align=center;verticalAlign=middle;whiteSpace=wrap;rounded=0;fontSize=16;" vertex="1" parent="1">
          <mxGeometry x="-408" y="430" width="123" height="30" as="geometry" />
        </mxCell>
        <mxCell id="eyw4eSIkDJySSZxIesNj-43" value="" style="endArrow=none;html=1;rounded=0;fontSize=12;startSize=8;endSize=8;curved=1;exitX=1;exitY=0.5;exitDx=0;exitDy=0;" edge="1" parent="1" source="eyw4eSIkDJySSZxIesNj-32">
          <mxGeometry width="50" height="50" relative="1" as="geometry">
            <mxPoint x="-215" y="345" as="sourcePoint" />
            <mxPoint x="61" y="206" as="targetPoint" />
          </mxGeometry>
        </mxCell>
        <mxCell id="eyw4eSIkDJySSZxIesNj-44" value="" style="endArrow=none;html=1;rounded=0;fontSize=12;startSize=8;endSize=8;curved=1;exitX=1;exitY=0.75;exitDx=0;exitDy=0;" edge="1" parent="1" source="eyw4eSIkDJySSZxIesNj-38">
          <mxGeometry width="50" height="50" relative="1" as="geometry">
            <mxPoint x="-235" y="273" as="sourcePoint" />
            <mxPoint x="74" y="273" as="targetPoint" />
          </mxGeometry>
        </mxCell>
        <mxCell id="eyw4eSIkDJySSZxIesNj-45" value="" style="endArrow=none;html=1;rounded=0;fontSize=12;startSize=8;endSize=8;curved=1;exitX=1;exitY=0.5;exitDx=0;exitDy=0;" edge="1" parent="1" source="eyw4eSIkDJySSZxIesNj-35">
          <mxGeometry width="50" height="50" relative="1" as="geometry">
            <mxPoint x="-227" y="328" as="sourcePoint" />
            <mxPoint x="78" y="333" as="targetPoint" />
          </mxGeometry>
        </mxCell>
        <mxCell id="eyw4eSIkDJySSZxIesNj-46" value="" style="endArrow=none;html=1;rounded=0;fontSize=12;startSize=8;endSize=8;curved=1;exitX=1;exitY=0.75;exitDx=0;exitDy=0;" edge="1" parent="1" source="eyw4eSIkDJySSZxIesNj-40">
          <mxGeometry width="50" height="50" relative="1" as="geometry">
            <mxPoint x="-212" y="393" as="sourcePoint" />
            <mxPoint x="72" y="397" as="targetPoint" />
          </mxGeometry>
        </mxCell>
        <mxCell id="eyw4eSIkDJySSZxIesNj-47" value="" style="endArrow=none;html=1;rounded=0;fontSize=12;startSize=8;endSize=8;curved=1;exitX=1;exitY=0.5;exitDx=0;exitDy=0;" edge="1" parent="1" source="eyw4eSIkDJySSZxIesNj-41">
          <mxGeometry width="50" height="50" relative="1" as="geometry">
            <mxPoint x="-219" y="445" as="sourcePoint" />
            <mxPoint x="72" y="445" as="targetPoint" />
          </mxGeometry>
        </mxCell>
      </root>
    </mxGraphModel>
  </diagram>
</mxfile>
